<svg width="60" height="60" viewBox="0 0 60 60" fill="none" xmlns="http://www.w3.org/2000/svg">
<circle cx="30" cy="30" r="29.5" fill="white" stroke="#C9C9C9"/>
<path d="M10 11.3333C10 10.9797 10.1405 10.6406 10.3905 10.3905C10.6406 10.1405 10.9797 10 11.3334 10H15.3335C15.6309 10.0001 15.9198 10.0996 16.1541 10.2827C16.3885 10.4659 16.5549 10.7221 16.6269 11.0107L17.7069 15.3333H48.6679C48.8636 15.3335 49.057 15.3768 49.2341 15.4601C49.4113 15.5435 49.568 15.6648 49.6929 15.8155C49.8179 15.9662 49.9082 16.1425 49.9573 16.332C50.0065 16.5216 50.0133 16.7196 49.9772 16.912L45.9771 38.2453C45.9199 38.5509 45.7578 38.8268 45.5187 39.0255C45.2796 39.2242 44.9786 39.333 44.6677 39.3333H20.667C20.3561 39.333 20.0552 39.2242 19.8161 39.0255C19.577 38.8268 19.4148 38.5509 19.3576 38.2453L15.3602 16.952L14.2935 12.6667H11.3334C10.9797 12.6667 10.6406 12.5262 10.3905 12.2761C10.1405 12.0261 10 11.687 10 11.3333ZM18.2723 18L21.7737 36.6667H43.561L47.0625 18H18.2723ZM23.3337 39.3333C21.9192 39.3333 20.5626 39.8952 19.5624 40.8954C18.5622 41.8956 18.0002 43.2522 18.0002 44.6667C18.0002 46.0812 18.5622 47.4377 19.5624 48.4379C20.5626 49.4381 21.9192 50 23.3337 50C24.7483 50 26.1049 49.4381 27.1051 48.4379C28.1053 47.4377 28.6672 46.0812 28.6672 44.6667C28.6672 43.2522 28.1053 41.8956 27.1051 40.8954C26.1049 39.8952 24.7483 39.3333 23.3337 39.3333ZM42.001 39.3333C40.5865 39.3333 39.2299 39.8952 38.2296 40.8954C37.2294 41.8956 36.6675 43.2522 36.6675 44.6667C36.6675 46.0812 37.2294 47.4377 38.2296 48.4379C39.2299 49.4381 40.5865 50 42.001 50C43.4155 50 44.7721 49.4381 45.7723 48.4379C46.7726 47.4377 47.3345 46.0812 47.3345 44.6667C47.3345 43.2522 46.7726 41.8956 45.7723 40.8954C44.7721 39.8952 43.4155 39.3333 42.001 39.3333ZM23.3337 42C24.041 42 24.7193 42.281 25.2194 42.7811C25.7195 43.2811 26.0005 43.9594 26.0005 44.6667C26.0005 45.3739 25.7195 46.0522 25.2194 46.5523C24.7193 47.0524 24.041 47.3333 23.3337 47.3333C22.6265 47.3333 21.9482 47.0524 21.4481 46.5523C20.948 46.0522 20.667 45.3739 20.667 44.6667C20.667 43.9594 20.948 43.2811 21.4481 42.7811C21.9482 42.281 22.6265 42 23.3337 42ZM42.001 42C42.7083 42 43.3866 42.281 43.8867 42.7811C44.3868 43.2811 44.6677 43.9594 44.6677 44.6667C44.6677 45.3739 44.3868 46.0522 43.8867 46.5523C43.3866 47.0524 42.7083 47.3333 42.001 47.3333C41.2937 47.3333 40.6154 47.0524 40.1153 46.5523C39.6152 46.0522 39.3342 45.3739 39.3342 44.6667C39.3342 43.9594 39.6152 43.2811 40.1153 42.7811C40.6154 42.281 41.2937 42 42.001 42Z" fill="#DEAD6F"/>
</svg>
