<svg width="60" height="60" viewBox="0 0 60 60" fill="none" xmlns="http://www.w3.org/2000/svg">
<circle cx="30" cy="30" r="29.5" fill="white" stroke="#C9C9C9"/>
<path d="M30 10C28.9717 10 27.95 10.3231 27.0698 10.9138L24.3452 12.6923L21.206 13.0769H21.155L21.104 13.1246C20.0744 13.342 19.1318 13.8278 18.3855 14.5257C17.6392 15.2236 17.1196 16.105 16.8871 17.0677L16.8378 17.1154V17.1631L16.4265 20.1446L14.5245 22.4523L14.4719 22.5V22.5477C13.3218 24.2662 13.2708 26.4846 14.5245 28.1246L16.4775 30.6723L16.9924 33.3185L11.6963 40.8646L10 43.2215H17.8661L19.768 47.3554L20.951 50L22.6473 47.5954L27.8397 40.2877C29.2349 40.8231 30.8095 40.8723 32.1602 40.2877L37.3527 47.5954L39.049 50L40.232 47.3554L42.1339 43.2215H50L48.3037 40.8646L43.1622 33.5585L43.5735 30.6738L45.4755 28.1262L45.5281 28.0785V28.0308C46.6782 26.3123 46.7292 24.1415 45.4755 22.5015L43.5735 19.9523L42.9566 17.0677H43.0076C43.001 17.0308 42.9631 17.0062 42.9566 16.9708C42.6604 14.9585 40.9576 13.3246 38.7924 13.0769H38.7397L35.6548 12.6923L32.9302 10.9138C32.0793 10.331 31.0548 10.0114 30 10ZM30 13.1246C30.3784 13.1246 30.7519 13.2323 31.0283 13.4138L33.9585 15.3846L34.3189 15.6246L34.7302 15.6738L38.33 16.1538H38.3794C39.1198 16.2308 39.6331 16.7123 39.717 17.4046V17.5L40.3866 20.9138L40.436 21.2508L40.6943 21.5385L42.8019 24.2785C43.1951 24.7892 43.2461 25.6554 42.7509 26.3938L40.4376 29.4231L40.385 29.8077L39.8717 33.1738V33.22C39.8443 33.4604 39.7563 33.6914 39.615 33.8938L39.5114 33.9431V33.9892C39.2668 34.2639 38.9161 34.4369 38.5357 34.4708H38.432L34.6792 35.0969L34.2679 35.1431L33.9585 35.3846L31.0283 37.3554C30.4821 37.7231 29.5048 37.7708 28.715 37.3077L26.0415 35.3846L25.7321 35.1446L25.2698 35.0954L21.67 34.6154H21.6206C21.388 34.5962 21.1637 34.5249 20.9667 34.4077C20.7697 34.2904 20.6057 34.1305 20.4886 33.9415C20.3793 33.7641 20.3094 33.5679 20.283 33.3646V33.2692L19.615 29.76L19.5624 29.3754L19.3057 29.0862L17.1981 26.3462C16.8049 25.8354 16.7539 24.9215 17.2491 24.1831L19.3057 21.6831L19.5624 21.3938L19.6134 20.9615L20.0773 17.74C20.0839 17.7169 20.1218 17.7169 20.1283 17.6923C20.2309 17.322 20.4375 16.984 20.7268 16.7135C21.0161 16.443 21.3775 16.2498 21.7736 16.1538C21.7999 16.1477 21.7999 16.1123 21.8246 16.1062L25.2698 15.6723L25.6811 15.6262L26.0415 15.3846L28.9717 13.4138C29.2481 13.2338 29.6216 13.1246 30 13.1246ZM41.3623 36.5385L43.8829 40.1446H39.921L39.5097 41.1062L38.3794 43.5569L34.8832 38.5569L35.6532 38.0292L38.8944 37.5V37.5477C38.9322 37.5415 38.9569 37.5062 38.9964 37.5C39.8623 37.3832 40.6805 37.0511 41.3623 36.5385ZM18.6377 36.5862C19.3521 37.1935 20.2496 37.5798 21.2076 37.6923H21.2586L24.3962 38.0769L25.1152 38.6062L21.619 43.5569L20.4886 41.1062L20.0773 40.1446H16.1188L18.6377 36.5862Z" fill="#DEAD6F"/>
</svg>
