<svg width="60" height="60" viewBox="0 0 60 60" fill="none" xmlns="http://www.w3.org/2000/svg">
<circle cx="30" cy="30" r="29.5" fill="white" stroke="#C9C9C9"/>
<path d="M30.84 48.82L48.84 30.82C49.56 30.1 50 29.1 50 28V14C50 11.8 48.2 10 46 10L32 10C30.9 10 29.9 10.44 29.16 11.18L11.16 29.18C10.44 29.9 10 30.9 10 32C10 33.1 10.44 34.1 11.18 34.82L25.18 48.82C25.9 49.56 26.9 50 28 50C29.1 50 30.12 49.54 30.84 48.82ZM13.98 32L32 14L46 14V28H46.02L28.02 46L13.98 32Z" fill="#DEAD6F"/>
<path d="M38 19C38 20.6569 39.3431 22 41 22C42.6569 22 44 20.6569 44 19C44 17.3431 42.6569 16 41 16C39.3431 16 38 17.3431 38 19Z" fill="#DEAD6F"/>
</svg>
