<svg width="60" height="60" viewBox="0 0 60 60" fill="none" xmlns="http://www.w3.org/2000/svg">
<circle cx="30" cy="30" r="29.5" fill="white" stroke="#C9C9C9"/>
<path d="M24.2857 10C18.7786 10 14.2857 14.4929 14.2857 20C14.2857 23.4429 16.0429 26.5 18.7057 28.3043C13.61 30.49 10 35.5471 10 41.4286H12.8571C12.8571 35.1 17.9571 30 24.2857 30C26.25 30 28.08 30.5143 29.6871 31.3843C28.0421 33.4185 27.1441 35.9553 27.1429 38.5714C27.1429 44.8657 32.2771 50 38.5714 50C44.8657 50 50 44.8657 50 38.5714C50 32.2771 44.8657 27.1429 38.5714 27.1429C36.1639 27.1449 33.819 27.9107 31.8743 29.33C31.2325 28.9359 30.5609 28.5925 29.8657 28.3029C31.2248 27.3854 32.3383 26.1489 33.1088 24.7014C33.8794 23.254 34.2835 21.6398 34.2857 20C34.2857 14.4929 29.7929 10 24.2857 10ZM24.2857 12.8571C28.2471 12.8571 31.4286 16.0386 31.4286 20C31.4286 23.9614 28.2471 27.1429 24.2857 27.1429C20.3243 27.1429 17.1429 23.9614 17.1429 20C17.1429 16.0386 20.3243 12.8571 24.2857 12.8571ZM38.5714 30C43.32 30 47.1429 33.8229 47.1429 38.5714C47.1429 43.32 43.32 47.1429 38.5714 47.1429C33.8229 47.1429 30 43.32 30 38.5714C30 33.8229 33.8229 30 38.5714 30ZM43.2586 34.6871L38.5714 39.3757L35.3129 36.1157L33.2586 38.17L37.5443 42.4557L38.5714 43.4371L39.5986 42.4557L45.3129 36.7414L43.2586 34.6871Z" fill="#DEAD6F"/>
</svg>
